<?xml version="1.0" encoding="UTF-8"?><svg id="Layer_1" xmlns="http://www.w3.org/2000/svg" viewBox="0 0 1862.26 197.75" fill="white"><path d="M961.3,184.53c-10.66,11.57-23.48,10.55-32.11-.59-21.75-28.08-43.92-55.84-66.19-83.51-6.46-8.02-18.53-9.7-27.03-4.24-1.6,1.03-2.58,4.21-2.57,6.39.02,25.47.32,50.93.45,76.4.04,8.81-7.95,17.2-16.41,16.79-1.45-.07-3.9-3.49-3.86-5.32.08-3.48,1.4-7,2.59-10.37,8.27-23.36.44-47.38,2.93-71.07,1.7-16.13.07-32.61,0-48.94-.01-2.59-.37-5.55.7-7.7,5.04-10.11,3.49-18.24-4.58-26.49-5.57-5.69-3.37-10.46,4.81-12.24,5.34-1.16,10.97-1.48,16.45-1.34,27.22.7,54.7-3.24,81.57,4.17,3.11.86,6.39,1.62,9.14,3.2,11.92,6.87,13.8,15.42,3.1,23.85-16.28,12.82-34.02,23.79-51.19,35.46-2.6,1.76-5.52,3.05-9.65,5.3,7.06,8.18,13.64,15.26,19.59,22.83,15.11,19.21,29.92,38.67,44.88,58q11.11,14.35,27.38,19.42ZM832.12,88.7c24.38-5.11,43.46-15.56,62.2-26.66,6.7-3.97,13.22-8.47,19.08-13.59,9.37-8.19,7.87-16.68-3.32-22.22-1.45-.72-2.96-1.64-4.51-1.76-22.63-1.82-45.26-3.68-67.93-4.97-1.77-.1-4.66,3.73-5.45,6.23-.93,2.96-.08,6.46-.08,9.73.02,17.22,0,34.43,0,53.24Z"/><path d="M384.25,9.79c-3.44,7.41-7.98,8.88-14.44,5.62-18.15-9.16-37.51-11.08-57.13-7.47-35.09,6.45-58.69,28.22-73.84,59.5-4.61,9.52-6.42,20.4-9.5,30.66-.09.31.05.72-.1.96-10.98,17.95,3.77,31.63,8.2,46.81,3.8,12.98,14.41,21.35,25.06,29.19,22.58,16.63,48.23,15.9,74.04,12.86,21.72-2.56,42.85-7.65,62-19.1,1.79-1.07,5.07.36,7.66.63-.62,2.63-.69,5.6-2.04,7.77-1.07,1.72-3.56,2.99-5.66,3.57-36.14,9.97-72.44,20.09-110.41,16.05-29.83-3.17-68.36-27.86-75.3-72.69-6.24-40.37,24.55-92.82,62.77-111.71,23.68-11.71,48.31-14.79,74.09-10.78,9.27,1.44,18.54,3,27.74,4.81,2.33.46,4.43,2.1,6.85,3.31Z"/><path d="M1283.12,88.67c-.47-9.46-.99-18.01-1.29-26.57-.64-18.76-2.11-37.56-1.29-56.26.35-8.1,8.69-4.58,13.13-4.64,0,22.02-.46,43.46.12,64.86.74,27.29,2.49,54.55,3.33,81.84.09,3.05-2.46,8.6-4.47,8.93-20.65,3.46-40.81,11.11-62.39,7.2-25.51-4.62-35.94-30.87-19.87-51.24,15.76-19.97,35.63-29.84,61.56-24.21,2.75.6,5.75.08,11.17.08ZM1249.21,156.96c6.79-.45,13.6-.77,20.38-1.38,6.17-.55,10.04-3.14,10.51-10.28.62-9.38,3.2-18.7,3.13-28.04-.04-5.14-2.31-12.5-6.1-14.95-9.85-6.37-21.29-10.05-33.22-5.01-22.34,9.45-37.31,23.49-23.28,47.3,6.71,11.4,16.85,13.21,28.58,12.35Z"/><path d="M1072.97,121.74c-.11,20.38-10.4,34.7-28.43,40.73-15.13,5.06-30.59,5.85-46.13,2.02-18.62-4.59-28.64-22.14-23.42-40.67,8.26-29.32,55.41-47.31,81.21-31.04,11.37,7.17,17.86,16.88,16.77,28.96ZM1058.75,127.18c-.07-18.97-14.12-33.53-31.98-33.15-19.13.41-40.07,18.43-40.17,34.58-.12,18.21,15.49,31.04,37.54,30.86,21.26-.17,34.7-12.71,34.62-32.28Z"/><path d="M593.59,120.81c-.43,22.29-10.68,37.29-31.88,42.23-12.89,3-27.15,3.78-40.18,1.69-25.77-4.12-34.9-29.38-20-51.27,17.03-25.03,51.44-34.38,75.63-20.43,11.02,6.36,17.11,15.71,16.43,27.78ZM545.56,159.07c22.84,1,40.02-18,34.24-40.08-4.15-15.85-19.61-26.74-35.09-24.73-19.21,2.5-37.78,19.89-37.41,35.43.08,3.46,1.19,7.08,2.61,10.29,6.49,14.64,19.6,17.8,35.65,19.1Z"/><path d="M1176.94,141.79c-.34,21.68-.31,21.25-20.87,19.84-6.94-.48-14.03,2.39-21.11,2.72-9.31.43-19.08,1.47-27.84-.83-5.58-1.47-12.53-7.96-13.6-13.27-.9-4.49,4.53-13.12,9.3-15.36,13.02-6.13,27.14-9.97,40.91-14.45,2.71-.88,5.99,0,8.68-.92,3.39-1.16,9.29-3.7,9.12-5-.56-4.44-2.24-9.84-5.44-12.64-10.41-9.13-22.97-9.04-35.05-1.86-4.04,2.4-8.96,3.58-13.63,4.53-1.45.29-3.42-2.03-5.16-3.15,1.09-1.46,1.88-3.73,3.3-4.24,14.93-5.29,29.58-12.08,46.23-8.22,12.87,2.98,20.8,10.68,22.49,23.67,1.26,9.68,1.8,19.46,2.67,29.2ZM1121.04,158.55c4.55,1.54,9.46,1.72,14.1.48,7.01-1.87,13.84-3.62,20.37-6.13,9.2-3.53,7.15-12.31,6.65-19.55-.16-2.37-3.38-6.34-5.39-6.47-15.38-.99-30.67-.78-43.81,9.34-7.08,5.46-7.66,13.46-.24,18.55,2.45,1.68,5.31,2.77,8.32,3.79Z"/><path d="M1325.42,142.77c.9-1.33,2.87-1.32,3.73.03,6.89,10.77,19.18,18.37,32.91,16.88,10.55-1.15,17.83-8.4,19.6-18.53,1.54-8.85-2.82-12.15-10.46-12.65-7.79-.51-15.62-.54-23.44-.66-8.53-.12-17.7-1.81-20.53-10.07-2.99-8.72,4.73-14.74,11.1-19.96,12.76-10.47,27.74-12.17,43.36-10.28,1.26.15,2.44.92,3.6,1.86,1.87,1.51,1.79,4.37-.18,5.76-1.17.82-2.36,1.48-3.59,1.6-5.12.47-10.39-.87-15.54-.53-6.34.41-12.97.85-18.77,3.1-2.96,1.14-6.38,6.56-5.94,9.49.42,2.78,5.3,5.7,8.8,6.96,3.14,1.13,7.07.18,10.64,0,1.94-.1,3.85-.72,5.79-.81,15.03-.68,26.23,5.18,29.76,15.46,2.71,7.9-3.66,21.8-14.68,28.57-16.25,9.98-33.86,11.37-51.28,3.45-4.03-1.83-7.21-7.28-8.9-11.77-.61-1.61,1.62-4.3,4.03-7.85Z"/><path d="M1462.61,176.34c6.12-3.6,4.11-47.15.92-70.31-.2-1.46.92-2.77,2.4-2.77,10.68-.05,21.62-.32,32.51.24,2.06.11,4.06,1.29,6.05,2.58,2.1,1.37,2.74,4.16,1.47,6.31s-2.46,4.11-3.83,6.07c-1.06,1.51-2.8,2.53-5.38,4.77,6.1,2.45,11.31,4.39,16.38,6.62,3.23,1.42,6.41,3.07,9.37,4.99,8.4,5.43,14.54,12.78,12.97,23.26-1.54,10.27-10.48,15.73-18.99,17.56-13.7,2.95-28.02,3.15-42.1,4.16-2.38.17-4.79-.16-6.92-.5-1.85-.3-9.55-.23-4.86-2.98ZM1473.4,151.19h.12c0,5.88-.61,11.86.28,17.6.4,2.57,3.95,6.79,5.81,6.66,12.16-.86,24.64-1.38,36.17-4.86,5.19-1.57,11.17-9.43,11.68-14.92.45-4.82-5.17-11.83-9.99-15.14-6.78-4.66-15.04-7.82-23.11-9.83-25.37-6.34-20.99-1.88-20.95,16.57,0,1.31,0,2.61,0,3.92ZM1472.36,120.89c0,1.45,1.03,2.67,2.47,2.5,7.11-.85,12.59-1.07,17.51-2.85,2.94-1.07,6.69-3.9,6.7-8.71,0-2.01,0-3.44-1.99-3.73-7.33-1.06-14.84-1.31-22.06-.79-2.65.19-2.63,6.89-2.63,13.59Z"/><path d="M489.24,87.94c-1.66,10.85-5.37,13.66-15.04,11.06-6.98-1.88-15.31-.45-22.65,1.24-7.6,1.75-11.57,7.3-11.07,16,.66,11.37.38,22.8.31,34.21-.02,2.9.23,6.84-1.43,8.44-2.65,2.56-6.8,3.57-10.31,5.24-.89-2.82-2.54-5.63-2.55-8.45-.02-17.46.18-34.92.65-52.37.11-4.22.5-11.25,2.56-11.99,3.97-1.43,9.2.89,13.93,1.3,3,.26,6.53.84,9.02-.37,11.57-5.67,23.52-4.72,36.56-4.3Z"/><path d="M1778.21,142.74c1.18,0,2.15.92,2.22,2.1.55,8.73,1.19,16.82,1.3,24.9.02,1.64-2.26,4.6-3.75,4.79-16.06,2.02-32.17,4.88-48.28,4.97-17.52.1-32.19-29.34-21.48-48.5,11.29-20.2,37.41-33.52,60.22-29.22.87.16,1.69.63,2.44,1.47.94,1.06.23,2.74-1.19,2.75-3.62.02-7.23.07-10.85-.03-26.68-.71-47.99,20.51-44.98,44.88,1.74,14.07,14.03,24.42,28.2,24.06,8.45-.22,16.89-1.46,25.35-1.81,7.06-.29,8.97-3.76,7.75-10.2-.87-4.63.43-9.98-.3-15.19-.14-1-.64-1.82-1.62-2.08-2.32-.62-6.92-.63-9.42-1.3l.21-1.59h14.2Z"/><path d="M.01,103.34h76.97c.23.42.46.84.69,1.25-2.45.83-4.9,2.35-7.35,2.37-7.16.07-14.34-.22-21.48-.82-6.84-.58-9.37,2.29-9.16,8.99.54,16.65.77,33.31,1.1,49.96.06,2.94.71,6.14-.22,8.74-.85,2.38-3.48,4.13-5.33,6.16-1.34-2.13-3.82-4.26-3.83-6.4-.09-15.68.3-31.35.55-47.03.03-1.96.17-3.92.15-5.88-.17-14.84-.17-14.76-15.25-14.02-5.61.28-11.24.04-16.86.04,0-1.12,0-2.25.01-3.37Z"/><path d="M1661.25,140.24c-10.8,1.19-13.94,4.19-18.16,7.17-2.69,1.9-5.52,8.49-4.39,9.96,2.82,3.67,7.6,6.99,12.09,7.84,3.43.65,8.07-2.07,11.28-4.48,1.48-1.11,1.22-3.03,1.62-5.61.07-.46-.25-1.92-.53-2.3-2.18-2.97-4.51-5.43-6.22-4.73-1.84.76-6.8,5.14-7.99,4.39-.57-.79-1.62-2.24-.31-3.73,1.8-1.14,6.05-3.24,9.53-4.81,1.02-.46,5.03,2.5,13.37,7.36.42.24,1.99.64,2.39.37,1.08-.73.68-1.94.85-4.42.13-1.78.56-2.93,2.13-4.26l1.68-.38c1.23.05,2.25,1.39,2.3,1.81.31,2.68-1.29,6.46-2.42,7.39-1.6,1.32-3.92.57-4.55,1.65-3.17,5.46-12.95,15.35-24.93,16.16-5.67.39-12.85-3.44-16.24-7.74-4.29-5.45-.69-11.23,5.3-15.45,3.9-2.75,5.05-3.87,3.27-6.21-2.16-2.85-2.5-8.04-.83-10.62,3.17-4.88,10.06-8,16.01-7.8,2.82.09,6.59.51,6.87,1.85.19.9-.63,1.59-1.46,1.61-2.79.07-7.7-.38-10.11.61-3.17,1.31-5.14,2.78-7.24,5.64-1.1,1.49-.35,3.56,1.23,4.74,2.64,1.98,5.18,1.34,8.56,1.14.61-.04,5.69-.62,6.32-.61,4.08-.44,4.04,3.07.57,3.46Z"/><path d="M87.64,99.81q4.26.34,7.58,35.02c.81.15,1.73.57,2.55.42,22.68-4.02,24.69,2.72,23.36,24.19-.06.89-.67,1.75-1.48,2.6-1.53,1.6-4.22,1.07-5.06-.97-.45-1.1-.81-2.21-.9-3.35-.28-3.67,2.09-9.17.39-10.77-3.54-3.34-8.86-5.34-13.76-6.32-1.28-.26-4.29,5.05-5.42,8.2-.93,2.6.13,5.86-.41,8.69-.27,1.41-.75,2.77-1.3,4.12-.71,1.74-3.09,1.9-4.06.29-.74-1.24-1.32-2.48-1.34-3.74-.31-19.47-.17-38.94-.17-58.38Z"/><path d="M1838,166.46c-.83-2.09,1.23-3.27,1.21-5.5-.2-18.21-.78-36.3-.5-54.51.03-1.78-1.77-4.47,2.77-4.47,4.92,0,2.89,2.2,2.9,3.51.25,20.42.22,56.93,1.2,60.4-.53,2.8-6.75,1.81-7.59.56Z"/><path d="M1569.59,147.14c-.47-1.76.54-6.65-2.45-6.9-2.6-.22-9.28-1.03-12.64,0-3.79,1.17-7.33,4.7-7.55,2.27,2.44-6.85,16.35-8.48,23.68-5.44,3.62,1.5,2.88,6.38,3.36,10.87.32,3.02.46,6.03.67,9.28.43,6.65,1.03,10.39-4.17,9.55-4.06-.66-12.37,2.47-16.21,1.62-3.07-.67-5.87-2.57-8.69-4.43-1.73-1.14-2.19-3.47-1.02-5.18,1.66-2.44,3.33-4.87,5.57-6.5,2.66-1.93,6.76-1.84,10.2-2.7,3.01-.75,6-1.58,9.24-2.44ZM1554.21,164.95c1.76,1.11,3.95,1.28,5.85.42,3.44-1.56,6.36-2.79,8.68-4.74,1.14-.95.39-6.69-.25-6.83-3.53-.79-7.29-.53-10.97-.59-.64-.01-4.07.83-4.5,1.18-2.38,1.91-3.76,1.75-4.35,5.03,1.04,2.87,3.29,4.09,5.55,5.53Z"/><path d="M1593.11,142.42c-1.3,8.09.36,16.49-.35,24.06-.05.49-.47.86-.96.85-1.36-.03-1.12.11-2.59.07-.4-.01-.72-.35-.72-.75v-26.42c0-1.74,1.41-3.16,3.16-3.16h18.69c.69,0,1.26.56,1.26,1.25v.35c0,.6.48,3.14-1.34,2.85l-11.95-1.76c-2.76-.11-4.64-.81-5.2,2.67Z"/><path d="M1827.18,127.26l-4.41,1.49c-.31.11-.76-.67-.76-.99v-.79c0-.3.19-.56.47-.67l4.29-1.82c.31-.11.79.57.79.91v1.32c0,.25-.16.47-.39.55Z"/><path d="M714.23,142.77c.9-1.33,2.87-1.32,3.73.03,6.89,10.77,19.18,18.37,32.91,16.88,10.55-1.15,17.83-8.4,19.6-18.53,1.54-8.85-2.82-12.15-10.46-12.65-7.79-.51-15.62-.54-23.44-.66-8.53-.12-17.7-1.81-20.53-10.07-2.99-8.72,4.73-14.74,11.1-19.96,12.76-10.47,27.74-12.17,43.36-10.28,1.26.15,2.44.92,3.6,1.86,1.87,1.51,1.79,4.37-.18,5.76-1.17.82-2.36,1.48-3.59,1.6-5.12.47-10.39-.87-15.54-.53-6.34.41-12.97.85-18.77,3.1-2.96,1.14-6.38,6.56-5.94,9.49.42,2.78,5.3,5.7,8.8,6.96,3.14,1.13,7.07.18,10.64,0,1.94-.1,3.85-.72,5.79-.81,15.03-.68,26.23,5.18,29.76,15.46,2.71,7.9-3.66,21.8-14.68,28.57-16.25,9.98-33.86,11.37-51.28,3.45-4.03-1.83-7.21-7.28-8.9-11.77-.61-1.61,1.62-4.3,4.03-7.85Z"/><path d="M618.21,142.77c.9-1.33,2.87-1.32,3.73.03,6.89,10.77,19.18,18.37,32.91,16.88,10.55-1.15,17.83-8.4,19.6-18.53,1.54-8.85-2.82-12.15-10.46-12.65-7.79-.51-15.62-.54-23.44-.66-8.53-.12-17.7-1.81-20.53-10.07-2.99-8.72,4.73-14.74,11.1-19.96,12.76-10.47,27.74-12.17,43.36-10.28,1.26.15,2.44.92,3.6,1.86,1.87,1.51,1.79,4.37-.18,5.76-1.17.82-2.36,1.48-3.59,1.6-5.12.47-10.39-.87-15.54-.53-6.34.41-12.97.85-18.77,3.1-2.96,1.14-6.38,6.56-5.94,9.49.42,2.78,5.3,5.7,8.8,6.96,3.14,1.13,7.07.18,10.64,0,1.94-.1,3.85-.72,5.79-.81,15.03-.68,26.23,5.18,29.76,15.46,2.71,7.9-3.66,21.8-14.68,28.57-16.25,9.98-33.86,11.37-51.28,3.45-4.03-1.83-7.21-7.28-8.9-11.77-.61-1.61,1.62-4.3,4.03-7.85Z"/><path d="M164.33,161.08c-12.62,3.17-19.92,2.1-23.41-2.96-1.23-1.78-.17-4.25,1.97-4.6,5.7-.92,11.49-1.64,16.75-3.7,1.96-.77,3.26-3.24,4.53-5.78,1.08-2.17.39-4.79-1.61-6.15-1.64-1.12-3.3-2.11-5.05-2.31-4.74-.56-9.81-.17-14.47.97-7.98,1.95-13.11,11.19-11.76,20.02,1.49,9.72,8.63,11.44,16.63,11.02,5.48-.29,10.96-1.34,16.33-2.55.58-.13,1.1-.55,1.7-1.2,1.11-1.22-.02-3.15-1.62-2.75ZM139.61,144.97c-.33-1.26,3.88-3.9,5.16-4.11l5.86-.81c1.35-.23,4.98-.42,6.56,1.25l.42.54c.54.69.62,1.65.18,2.41-.68,1.19-1.54,1.99-2.28,2.17l-10.73,2.06c-.71.3-2.23.52-3.76-.35-.51-.29-.86-.8-.99-1.37l-.41-1.77Z"/><path d="M1797.92,141.48c-1.3,8.09.36,16.49-.35,24.06-.05.49-.47.86-.96.85-1.36-.03-1.12.11-2.59.07-.4-.01-.72-.35-.72-.75v-26.42c0-1.74,1.41-3.16,3.16-3.16h18.69c.69,0,1.26.56,1.26,1.25v.35c0,.6.48,3.14-1.34,2.85l-11.95-1.76c-2.76-.11-4.64-.81-5.2,2.67Z"/><path d="M1854.67,166.46c-.83-2.09,1.23-3.27,1.21-5.5-.2-18.21-.78-36.3-.5-54.51.03-1.78-1.77-4.47,2.77-4.47,4.92,0,2.89,2.2,2.9,3.51.25,20.42.22,56.93,1.2,60.4-.53,2.8-6.75,1.81-7.59.56Z"/><path d="M1822.32,165.81c-.83-2.09.25-3.75.33-5.97.2-6.13.51-17.33.09-19.33-.69-3.26-.34-4.51,2.14-4.51,3.4,0,2.89,2.2,2.9,3.51.25,20.42-.71,21.91.27,25.39-.53,2.8-4.89,2.16-5.72.91Z"/></svg>